<svg width="507" height="31" viewBox="0 0 507 31" fill="none" xmlns="http://www.w3.org/2000/svg">
<path d="M277.015 1.75902C292.005 1.64051 345.082 1.4721 379.106 1.06044C457.841 0.0998921 536.595 -0.642351 615.15 0.854609C627.43 1.09163 648.3 0.92322 647.95 7.98388C647.58 15.3315 633.65 19.7412 612.24 19.6726C560.42 19.498 508.32 18.3004 456.775 20.0718C381.373 22.6603 306.063 22.3734 230.723 23.4712C163.073 24.4567 95.393 24.7249 27.749 25.779C-35.794 26.7645 -99.301 28.9725 -162.826 29.5089C-217.656 29.9705 -272.473 28.6731 -327.327 28.5421C-340.239 28.5109 -355.768 29.9642 -369.924 29.9892C-381.629 30.0079 -401.147 30.1389 -412.748 29.6399C-417.755 29.4216 -422.958 29.1347 -427.854 29.4465C-450.363 30.8437 -456.338 28.3488 -448.88 20.2153C-447.238 18.4252 -449.174 16.1236 -443.739 14.8574C-443.512 14.8075 -443.064 14.7015 -442.862 14.6329C-426.396 9.58687 -409.433 11.6951 -392.366 11.4144C-308.611 10.0609 -224.832 9.19392 -141.065 8.15229C-89.668 7.50984 -38.203 7.32896 13.091 5.88813C27.137 5.49518 41.176 4.31009 55.443 4.79036H55.198C70.071 4.40365 84.95 3.78615 99.824 3.66141C156.105 3.19361 214.875 2.00851 268.889 2.13326C271.016 2.13326 273.884 1.78397 277.015 1.75902Z" fill="url(#paint0_linear_3_12)"/>
<defs>
<linearGradient id="paint0_linear_3_12" x1="-869.341" y1="4.88615" x2="-860.881" y2="139.862" gradientUnits="userSpaceOnUse">
<stop stop-color="#128C7E"/>
<stop offset="1" stop-color="#D4EAE8"/>
</linearGradient>
</defs>
</svg>
