<svg width="37" height="37" viewBox="0 0 37 37" fill="none" xmlns="http://www.w3.org/2000/svg">
<path d="M0.625 36.042L3.105 26.949C1.57577 24.2821 0.77143 21.2612 0.772 18.187C0.772 8.52099 8.598 0.647003 18.205 0.647003C22.871 0.647003 27.243 2.477 30.549 5.785C32.1737 7.41503 33.461 9.3494 34.3373 11.4775C35.2137 13.6056 35.6618 15.8856 35.656 18.187C35.656 27.854 27.831 35.728 18.223 35.728C15.303 35.728 12.437 34.988 9.883 33.584L0.625 36.042Z" fill="url(#paint0_linear_9_8)"/>
<path d="M0 36.671L2.572 27.263C0.99072 24.4999 0.16116 21.3706 0.166 18.187C0.147 8.151 8.248 0 18.205 0C23.036 0 27.573 1.885 30.99 5.323C34.407 8.761 36.28 13.326 36.28 18.187C36.28 28.205 28.18 36.357 18.223 36.357C15.2039 36.3609 12.2333 35.5977 9.59 34.139L0 36.671ZM10.013 30.867L10.564 31.2C12.8754 32.577 15.5155 33.3049 18.206 33.307C26.472 33.307 33.214 26.523 33.214 18.206C33.214 14.176 31.653 10.369 28.824 7.522C25.993 4.677 22.209 3.087 18.204 3.087C9.919 3.087 3.177 9.871 3.177 18.188C3.177 21.035 3.967 23.826 5.474 26.228L5.823 26.802L4.298 32.384L10.011 30.868L10.013 30.867Z" fill="url(#paint1_linear_9_8)"/>
<path fill-rule="evenodd" clip-rule="evenodd" d="M13.704 10.572C13.374 9.81401 13.006 9.79601 12.694 9.79601C12.418 9.77701 12.124 9.77701 11.812 9.77701C11.518 9.77701 11.022 9.88801 10.6 10.35C10.177 10.812 9.02 11.903 9.02 14.14C9.02 16.376 10.637 18.539 10.857 18.834C11.077 19.13 13.98 23.862 18.572 25.692C22.393 27.207 23.165 26.912 23.992 26.819C24.818 26.727 26.655 25.729 27.041 24.656C27.408 23.603 27.408 22.679 27.298 22.494C27.188 22.309 26.875 22.198 26.434 21.958C25.975 21.736 23.771 20.628 23.348 20.479C22.926 20.331 22.632 20.257 22.338 20.701C22.044 21.163 21.181 22.18 20.905 22.475C20.648 22.771 20.373 22.808 19.932 22.586C19.472 22.365 18.022 21.884 16.294 20.331C14.954 19.13 14.054 17.633 13.778 17.189C13.521 16.727 13.741 16.487 13.98 16.265C14.182 16.062 14.44 15.729 14.66 15.47C14.88 15.211 14.953 15.008 15.119 14.712C15.266 14.417 15.192 14.139 15.082 13.918C14.972 13.714 14.108 11.478 13.704 10.572Z" fill="white"/>
<defs>
<linearGradient id="paint0_linear_9_8" x1="18.137" y1="36.04" x2="18.137" y2="0.640002" gradientUnits="userSpaceOnUse">
<stop stop-color="#20B038"/>
<stop offset="1" stop-color="#60D66A"/>
</linearGradient>
<linearGradient id="paint1_linear_9_8" x1="18.137" y1="36.675" x2="18.137" y2="0.00500089" gradientUnits="userSpaceOnUse">
<stop stop-color="#F9F9F9"/>
<stop offset="1" stop-color="white"/>
</linearGradient>
</defs>
</svg>
